<?xml version="1.0" encoding="UTF-8"?> <svg xmlns="http://www.w3.org/2000/svg" width="32" height="32" viewBox="0 0 32 32" fill="#0b3d7a"><path d="M25.3041 19.8229C24.648 19.1407 23.8567 18.776 23.018 18.776C22.1861 18.776 21.388 19.134 20.7048 19.8161L18.5675 21.9436C18.3917 21.849 18.2158 21.7612 18.0467 21.6734C17.8032 21.5518 17.5733 21.437 17.3771 21.3155C15.3751 20.0457 13.5556 18.391 11.8106 16.2501C10.9652 15.183 10.397 14.2847 9.98443 13.373C10.539 12.8664 11.0531 12.3396 11.5536 11.8331C11.743 11.644 11.9324 11.4481 12.1217 11.259C13.5421 9.84071 13.5421 8.00368 12.1217 6.58538L10.2753 4.74158C10.0656 4.53221 9.84915 4.31609 9.64624 4.09997C9.24042 3.68123 8.81431 3.24899 8.37467 2.84376C7.7186 2.19539 6.93402 1.85095 6.10885 1.85095C5.28368 1.85095 4.48557 2.19539 3.80921 2.84376C3.80244 2.85051 3.80244 2.85051 3.79568 2.85727L1.49603 5.17383C0.630285 6.03832 0.136538 7.09191 0.0283197 8.31435C-0.134008 10.2865 0.447667 12.1235 0.894068 13.3257C1.98978 16.2771 3.62659 19.0124 6.06827 21.9436C9.03075 25.4758 12.5952 28.2651 16.6669 30.2305C18.2226 30.9667 20.299 31.8379 22.6189 31.9865C22.761 31.9932 22.9098 32 23.0451 32C24.6075 32 25.9196 31.4394 26.9477 30.325C26.9544 30.3115 26.968 30.3048 26.9747 30.2913C27.3264 29.8658 27.7323 29.4808 28.1584 29.0688C28.4492 28.7919 28.7468 28.5015 29.0377 28.1976C29.7073 27.502 30.059 26.6915 30.059 25.8608C30.059 25.0233 29.7005 24.2196 29.0174 23.5442L25.3041 19.8229ZM27.7255 26.9346C27.7187 26.9414 27.7187 26.9346 27.7255 26.9346C27.4617 27.2183 27.1912 27.4749 26.9003 27.7586C26.4607 28.1773 26.0143 28.6163 25.595 29.1094C24.9118 29.8388 24.1069 30.1832 23.0518 30.1832C22.9504 30.1832 22.8421 30.1832 22.7407 30.1765C20.7319 30.0481 18.8651 29.2647 17.465 28.5961C13.6368 26.7455 10.2753 24.1183 7.48187 20.7887C5.17546 18.0128 3.63335 15.4464 2.61204 12.6908C1.98302 11.0091 1.75305 9.69889 1.85451 8.46294C1.92214 7.67274 2.22651 7.01762 2.78789 6.45705L5.0943 4.154C5.42572 3.84333 5.77743 3.67448 6.12238 3.67448C6.54849 3.67448 6.89343 3.93112 7.10987 4.14725C7.11663 4.154 7.1234 4.16075 7.13016 4.16751C7.54274 4.55248 7.93504 4.95095 8.34762 5.37644C8.55729 5.59256 8.77373 5.80869 8.99017 6.03156L10.8366 7.87535C11.5536 8.59126 11.5536 9.25313 10.8366 9.96904C10.6405 10.1649 10.4511 10.3608 10.255 10.5499C9.68682 11.1307 9.14573 11.671 8.55729 12.1978C8.54377 12.2113 8.53024 12.2181 8.52348 12.2316C7.9418 12.8124 8.05002 13.3797 8.17176 13.7647C8.17853 13.7849 8.18529 13.8052 8.19206 13.8255C8.67228 14.9871 9.34864 16.0812 10.3767 17.3847L10.3835 17.3915C12.2503 19.6878 14.2185 21.4775 16.3896 22.8486C16.6669 23.0242 16.951 23.166 17.2215 23.3011C17.465 23.4226 17.695 23.5375 17.8911 23.659C17.9182 23.6725 17.9453 23.6928 17.9723 23.7063C18.2023 23.8211 18.4187 23.8751 18.6419 23.8751C19.2033 23.8751 19.555 23.5239 19.67 23.4091L21.9832 21.0993C22.2131 20.8697 22.5784 20.5928 23.0045 20.5928C23.4238 20.5928 23.7688 20.8562 23.9784 21.0858C23.9852 21.0926 23.9852 21.0926 23.992 21.0993L27.7187 24.8207C28.4154 25.5096 28.4154 26.2187 27.7255 26.9346Z"></path><path d="M17.296 7.61196C19.068 7.90913 20.6778 8.7466 21.9629 10.0298C23.248 11.3131 24.0799 12.9205 24.3843 14.69C24.4587 15.1357 24.8442 15.4464 25.2838 15.4464C25.338 15.4464 25.3853 15.4396 25.4394 15.4329C25.9399 15.3518 26.2713 14.8791 26.1902 14.3793C25.8249 12.2383 24.8104 10.2865 23.2615 8.73985C21.7126 7.19323 19.7579 6.18015 17.6139 5.81545C17.1133 5.7344 16.6466 6.06534 16.5587 6.55837C16.4708 7.0514 16.7954 7.53092 17.296 7.61196Z"></path><path d="M31.9866 14.1159C31.3846 10.5904 29.7207 7.38233 27.1641 4.82939C24.6074 2.27644 21.3947 0.615006 17.864 0.0139156C17.3703 -0.073884 16.9036 0.263807 16.8157 0.756836C16.7345 1.25662 17.0659 1.72263 17.5664 1.81043C20.7183 2.34398 23.5929 3.83658 25.879 6.11261C28.1651 8.39541 29.6531 11.2658 30.1874 14.4131C30.2618 14.8588 30.6474 15.1695 31.087 15.1695C31.1411 15.1695 31.1885 15.1627 31.2426 15.156C31.7363 15.0817 32.0745 14.6089 31.9866 14.1159Z"></path></svg> 